# xmcd CD database file
#
# Track frame offsets:
#	183
#	16650
#	30915
#	47720
#	64043
#	75820
#	92065
#	109388
#	129118
#	145420
#	161793
#	178980
#	192728
#	209983
#	226040
#	240408
#
# Disc length: 3444 seconds
#
# Revision: 2
# Processed by: cddbd v1.4b41PL1 Copyright (c) Steve Scherf et al.
# Submitted via: Feurio! 1.52 - http://www.feurio.com
#
DISCID=d20d7210,d20d7310
DTITLE=Franco Simone - Mie, Più Mie
DYEAR=1900
DGENRE=
TTITLE0=Tu E... Così Sia
TTITLE1=Mia, Più Mia, Più Mia
TTITLE2=Fiume Grande
TTITLE3=Tentazione
TTITLE4=Non Ti Vendere, Rosa
TTITLE5=Il Corvo (Il Vulcano E La Notte)
TTITLE6=La Ferrovia
TTITLE7=Il Vecchio Del Carrozzone
TTITLE8=Cara Droga
TTITLE9=La Casa In Via Del Campo
TTITLE10=Triangolo
TTITLE11=Il Cielo In Una Stanza
TTITLE12=Con Gli Occhi Chiusi (E I Pugni Stretti)
TTITLE13=Paesaggio
TTITLE14=Respiro
TTITLE15=Mi Esplodevi Nella Mente
EXTD=
EXTT0=
EXTT1=
EXTT2=
EXTT3=
EXTT4=
EXTT5=
EXTT6=
EXTT7=
EXTT8=
EXTT9=
EXTT10=
EXTT11=
EXTT12=
EXTT13=
EXTT14=
EXTT15=
PLAYORDER=
